<?xml version="1.0" encoding="utf-8"?>
<!-- Generator: Adobe Illustrator 15.1.0, SVG Export Plug-In . SVG Version: 6.00 Build 0)  -->
<!DOCTYPE svg PUBLIC "-//W3C//DTD SVG 1.1//EN" "http://www.w3.org/Graphics/SVG/1.1/DTD/svg11.dtd">
<svg version="1.1" id="Layer_1" xmlns="http://www.w3.org/2000/svg" xmlns:xlink="http://www.w3.org/1999/xlink" x="0px" y="0px"
	 width="100px" height="100px" viewBox="0.25 0.25 100 100" enable-background="new 0.25 0.25 100 100" xml:space="preserve">
<path fill="#FFFFFF" d="M12.176,86.261c0-0.623-0.228-1.162-0.683-1.618c-0.456-0.456-0.995-0.683-1.618-0.683
	c-0.623,0-1.162,0.228-1.618,0.683c-0.455,0.456-0.683,0.995-0.683,1.618s0.228,1.162,0.683,1.618s0.995,0.683,1.618,0.683
	s1.163-0.227,1.618-0.683C11.949,87.423,12.176,86.884,12.176,86.261z M35.329,71.162L10.81,95.68
	c-0.886,0.887-1.965,1.33-3.235,1.33c-1.247,0-2.337-0.443-3.271-1.33l-3.811-3.883c-0.911-0.863-1.366-1.941-1.366-3.236
	c0-1.27,0.455-2.36,1.366-3.271l24.482-24.482c0.935,2.349,2.307,4.428,4.117,6.237C30.9,68.855,32.979,70.227,35.329,71.162z
	 M58.121,55.523c0,0.935-0.275,2.205-0.827,3.811c-1.126,3.211-3.098,5.818-5.914,7.819c-2.816,2.001-5.914,3.002-9.293,3.002
	c-4.434,0-8.227-1.576-11.378-4.728c-3.152-3.151-4.728-6.944-4.728-11.378c0-4.434,1.576-8.227,4.728-11.378
	c3.151-3.151,6.944-4.727,11.378-4.727c1.39,0,2.846,0.198,4.368,0.593c1.522,0.396,2.81,0.953,3.864,1.672
	c0.384,0.264,0.575,0.6,0.575,1.007c0,0.408-0.191,0.743-0.575,1.007l-10.533,6.075v8.053l6.938,3.846
	c0.12-0.072,1.066-0.653,2.84-1.744c1.773-1.09,3.397-2.061,4.871-2.912s2.319-1.276,2.535-1.276c0.359,0,0.641,0.12,0.845,0.359
	S58.121,55.164,58.121,55.523z"/>
<path fill="#FFFFFF" d="M52.457,50.25c0-0.609-0.216-1.129-0.646-1.56c-0.431-0.431-0.951-0.647-1.561-0.647
	c-0.609,0-1.129,0.216-1.561,0.647c-0.431,0.431-0.646,0.951-0.646,1.56s0.216,1.13,0.646,1.561
	c0.431,0.431,0.952,0.646,1.561,0.646c0.609,0,1.129-0.215,1.561-0.646C52.241,51.38,52.457,50.859,52.457,50.25z M56.871,49.311
	v1.914c0,0.069-0.023,0.135-0.069,0.198c-0.046,0.063-0.104,0.101-0.172,0.112l-1.595,0.242c-0.109,0.31-0.222,0.572-0.336,0.784
	c0.201,0.287,0.509,0.684,0.922,1.19c0.058,0.069,0.086,0.141,0.086,0.215s-0.026,0.141-0.078,0.199
	c-0.155,0.212-0.439,0.522-0.854,0.931c-0.414,0.408-0.684,0.612-0.811,0.612c-0.069,0-0.144-0.026-0.224-0.078l-1.189-0.931
	c-0.253,0.132-0.515,0.241-0.785,0.327c-0.092,0.782-0.175,1.316-0.25,1.604c-0.04,0.161-0.144,0.241-0.311,0.241h-1.914
	c-0.081,0-0.151-0.024-0.211-0.073c-0.061-0.048-0.093-0.11-0.099-0.185l-0.241-1.586c-0.282-0.092-0.541-0.198-0.776-0.319
	L46.75,55.63c-0.057,0.052-0.129,0.077-0.215,0.077c-0.081,0-0.152-0.031-0.215-0.095c-0.725-0.655-1.199-1.138-1.423-1.448
	c-0.041-0.058-0.061-0.124-0.061-0.199c0-0.069,0.023-0.135,0.069-0.198c0.086-0.121,0.233-0.312,0.44-0.573
	s0.362-0.464,0.465-0.607c-0.155-0.288-0.273-0.572-0.354-0.854L43.879,51.5c-0.075-0.012-0.135-0.047-0.181-0.108
	c-0.046-0.06-0.069-0.127-0.069-0.202v-1.914c0-0.069,0.023-0.135,0.069-0.198c0.046-0.063,0.1-0.101,0.164-0.112l1.604-0.241
	c0.081-0.265,0.192-0.529,0.336-0.793c-0.23-0.328-0.537-0.724-0.922-1.189c-0.058-0.069-0.086-0.138-0.086-0.207
	c0-0.058,0.025-0.124,0.078-0.198c0.149-0.207,0.432-0.516,0.849-0.927c0.417-0.411,0.688-0.616,0.814-0.616
	c0.075,0,0.149,0.028,0.225,0.086l1.189,0.922c0.253-0.132,0.514-0.242,0.785-0.328c0.092-0.781,0.175-1.316,0.25-1.603
	c0.04-0.161,0.144-0.242,0.311-0.242h1.914c0.081,0,0.151,0.024,0.211,0.073c0.06,0.048,0.093,0.111,0.099,0.186l0.241,1.586
	c0.282,0.092,0.541,0.198,0.776,0.319l1.224-0.922c0.052-0.052,0.121-0.078,0.207-0.078c0.075,0,0.146,0.028,0.215,0.086
	c0.742,0.684,1.216,1.173,1.423,1.466c0.041,0.046,0.061,0.109,0.061,0.19c0,0.069-0.023,0.135-0.069,0.198
	c-0.086,0.121-0.233,0.312-0.44,0.573c-0.207,0.262-0.362,0.465-0.465,0.608c0.149,0.287,0.267,0.568,0.353,0.845L56.621,49
	c0.075,0.012,0.135,0.047,0.182,0.108C56.848,49.168,56.871,49.236,56.871,49.311z"/>
</svg>
